<svg width="76" height="75" viewBox="0 0 76 75" fill="none" xmlns="http://www.w3.org/2000/svg">
<path d="M18.1245 36.5468H41.3122C42.1383 36.5468 42.8082 35.8768 42.8082 35.0508C42.8082 34.2247 42.1383 33.5548 41.3122 33.5548H18.1245C17.298 33.5548 16.6285 34.2247 16.6285 35.0508C16.6285 35.8768 17.298 36.5468 18.1245 36.5468Z" fill="#030616"/>
<path d="M32.0067 43.2787H18.1245C17.298 43.2787 16.6285 43.9486 16.6285 44.7746C16.6285 45.6007 17.298 46.2706 18.1245 46.2706H32.0067C32.8328 46.2706 33.5027 45.6007 33.5027 44.7746C33.5027 43.9486 32.8328 43.2787 32.0067 43.2787Z" fill="#030616"/>
<path d="M57.9769 39.9571V14.1071C57.976 9.97632 54.6273 6.6286 50.497 6.62719H44.3635V3.76987C44.3635 2.94335 43.6941 2.2739 42.8675 2.2739C42.0415 2.2739 41.3716 2.94335 41.3716 3.76987V6.62719H21.0263V3.76987C21.0263 2.94335 20.3568 2.2739 19.5303 2.2739C18.7042 2.2739 18.0343 2.94335 18.0343 3.76987V6.62719H11.9008C7.77049 6.6286 4.42277 9.97632 4.4209 14.1071V54.6331C4.42277 58.7635 7.77049 62.1112 11.9008 62.113H39.5918C42.4702 69.4854 50.1894 73.7648 57.9671 72.3007C65.7448 70.8369 71.38 64.0438 71.3814 56.1291C71.3959 48.0957 65.6064 41.3937 57.9769 39.9571ZM11.9162 9.61915H18.0497V12.4765C18.0497 13.3025 18.7192 13.9724 19.5457 13.9724C20.3718 13.9724 21.0417 13.3025 21.0417 12.4765V9.61915H41.387V12.4765C41.387 13.3025 42.0564 13.9724 42.883 13.9724C43.709 13.9724 44.379 13.3025 44.379 12.4765V9.61915H50.5125C52.9878 9.62616 54.9929 11.6312 55.0004 14.1071V17.7274H7.42828V14.1071C7.43015 11.6289 9.4385 9.62102 11.9162 9.61915ZM11.9162 59.1211C9.44037 59.1141 7.4353 57.1085 7.42828 54.6331V20.7044H54.985V39.6734H54.9401C50.0543 39.6808 45.4238 41.8552 42.2981 45.611C39.172 49.3664 37.8743 54.3153 38.7536 59.1211H11.9162ZM54.9401 69.5929C47.5046 69.5929 41.4763 63.5651 41.4763 56.1291C41.4763 48.6932 47.5046 42.6653 54.9401 42.6653C62.376 42.6653 68.4039 48.6932 68.4039 56.1291C68.3927 63.5604 62.3714 69.5817 54.9401 69.5929Z" fill="#030616"/>
<path d="M61.8665 50.7586L52.9808 59.2407L48.3877 54.6331C47.8057 54.0506 46.8613 54.0506 46.2788 54.6331C45.6959 55.2156 45.6959 56.16 46.2788 56.7425L51.9182 62.3823C52.1987 62.6647 52.582 62.8213 52.9808 62.8161C53.367 62.8194 53.7382 62.6689 54.0126 62.3968L63.9459 52.8973C64.232 52.6238 64.3975 52.2485 64.4064 51.8525C64.4143 51.4565 64.2652 51.0736 63.9908 50.7885C63.4083 50.2041 62.4653 50.1905 61.8665 50.7586Z" fill="#030616"/>
</svg>
