<svg width="74" height="75" viewBox="0 0 74 75" fill="none" xmlns="http://www.w3.org/2000/svg">
<g clip-path="url(#clip0_31_375)">
<path d="M70.0727 23.3322H57.5237C55.3582 23.3322 53.5964 25.0949 53.5964 27.2617V41.7053H48.9026C49.1635 40.757 49.2602 39.6385 49.1967 38.3368V38.3367C49.0948 32.836 48.0967 28.2 46.2298 24.5575C44.7801 21.7295 43.0884 20.034 41.6367 19.0204C43.3406 17.2685 44.3257 14.7764 44.3257 11.9021C44.3257 6.7306 40.2004 2.52344 35.1298 2.52344C30.0592 2.52344 25.9338 6.7306 25.9338 11.9021C25.9338 12.5009 26.4192 12.9861 27.0178 12.9861H27.7543C27.6866 13.3951 27.6504 13.8119 27.6504 14.2352C27.6504 17.8797 30.2546 20.9257 33.6976 21.6084C33.3367 22.9484 33.1573 24.5286 33.1581 26.3237L30.4545 28.6491L23.8761 29.1811L16.2878 26.6726C15.5923 26.4413 14.804 26.18 14.1201 26.6732C13.4462 27.1595 13.4462 28.0109 13.4462 28.2906V33.9324C13.4462 34.5312 13.9315 35.0164 14.5302 35.0164H15.8207L13.8413 41.8562C13.675 42.4311 14.0062 43.0324 14.5813 43.1987C15.1567 43.3659 15.7575 43.0338 15.924 42.4589L18.0778 35.0164H21.1595C17.3266 46.7049 19.5136 54.507 22.8753 62.4029H20.9267L12.8108 53.3283L14.527 47.3997C14.6935 46.8246 14.3622 46.2235 13.7871 46.0571C13.212 45.8908 12.6109 46.222 12.4444 46.797L10.803 52.4679C5.72619 52.3833 1.18501 55.8835 0.0277516 60.9194C-0.106229 61.5027 0.257845 62.0843 0.841029 62.2185L2.37985 62.5726C1.98673 66.6559 4.67573 70.5083 8.77666 71.4523C9.39945 71.5958 10.0276 71.6666 10.6514 71.6666C12.1898 71.6666 13.7011 71.2353 15.0379 70.3975C16.6068 69.4144 17.7758 67.9691 18.4084 66.261L19.6226 66.5404C19.9843 66.6241 20.3275 66.6664 20.6703 66.4818C20.9893 66.3101 21.2013 66.0001 21.2808 65.6502C21.3571 65.2954 21.4152 64.9348 21.4555 64.5708H44.1264C44.8514 69.0783 48.6865 72.4761 53.2668 72.4761C57.8472 72.4761 61.6825 69.0783 62.4074 64.5708H63.2347C63.2347 64.5708 63.3989 64.5727 63.4364 64.5727C63.7464 64.5727 64.1941 64.5383 64.5618 64.1643C64.7458 63.9771 64.9617 63.6422 64.9451 63.1102C64.9146 62.0923 64.7619 61.1087 64.5011 60.1739C65.3645 54.9321 64.5338 51.7395 63.3022 49.241C64.0808 48.7307 64.5971 47.8513 64.5971 46.8523V43.8731H70.0724C72.2379 43.8731 73.9997 42.1104 73.9997 39.9436V27.2616C74 25.0949 72.2383 23.3322 70.0727 23.3322ZM13.8867 68.5608C12.4991 69.4304 10.8572 69.7069 9.2633 69.3399C6.3296 68.6647 4.37222 65.9745 4.51487 63.0657L16.2729 65.7719C15.7864 66.9173 14.9633 67.8861 13.8867 68.5608ZM19.3107 64.2442L2.44894 60.3641C3.75015 56.8008 7.25186 54.4421 11.0795 54.645L19.3396 63.8807C19.3324 64.0026 19.3228 64.1237 19.3107 64.2442ZM35.6839 45.3547C35.3693 46.1846 35.3693 47.2077 35.3693 48.624V52.7145H31.4V47.1027C31.4 40.758 34.8627 39.6274 36.4167 39.4408H47.0439C47.0011 40.8807 46.6762 41.9043 46.0594 42.554C45.3405 43.311 44.1104 43.6799 42.2985 43.6816L38.4076 43.6856C37.0201 43.6858 36.1038 44.2472 35.6839 45.3547ZM35.3693 54.8823V57.4706C35.3594 57.4706 35.3493 57.4706 35.3389 57.4706H27.6393C27.7259 56.6679 27.9759 56.0467 28.3865 55.6168C28.9973 54.9777 29.8576 54.8823 30.316 54.8823H35.3693ZM46.9961 37.2729H37.138C36.7422 36.0272 36.3892 34.6631 36.099 33.2612L39.0961 31.3158C40.7322 30.2533 41.5834 28.7521 41.4313 27.1968C41.2966 25.8181 40.3593 24.5866 39.0435 24.0595C37.8419 23.5782 36.5485 23.7294 35.4054 24.4602C35.4996 23.4234 35.6751 22.4978 35.9289 21.7121C36.3909 21.6644 36.8498 21.5741 37.3005 21.4416C38.2178 21.2285 39.0655 20.889 39.8308 20.4388C41.9185 21.6861 46.5103 25.7318 46.9961 37.2729ZM28.1811 10.8182C28.6923 7.35468 31.6136 4.69155 35.1298 4.69155C39.0049 4.69155 42.1577 7.9263 42.1577 11.9022C42.1577 15.136 40.6071 17.7423 38.1067 18.8893V13.1857C38.1067 12.1981 37.7287 10.9866 35.9287 10.8227C35.8961 10.8197 35.8633 10.8182 35.8305 10.8182H28.1811ZM29.8185 14.2354C29.8185 13.8076 29.8672 13.3897 29.9631 12.9862H35.7773C35.8442 12.9934 35.893 13.0012 35.928 13.0083C35.9337 13.0485 35.9386 13.1063 35.9386 13.1857V19.5271C35.6803 19.5651 35.4204 19.5843 35.1607 19.5845C35.1582 19.5845 35.1558 19.5845 35.1535 19.5845C32.2114 19.5817 29.8185 17.1832 29.8185 14.2354ZM28.4133 30.9894L30.9807 30.7818C31.2095 30.7634 31.4264 30.6728 31.6006 30.5232L36.2343 26.5377L36.235 26.537C36.683 26.151 37.1613 25.953 37.627 25.953C37.8342 25.953 38.039 25.9923 38.2375 26.0718C38.8103 26.3011 39.217 26.8255 39.2739 27.4074C39.3455 28.1397 38.863 28.882 37.9159 29.4972L32.7525 32.8486H28.4135V30.9894H28.4133ZM23.8322 31.36L26.2453 31.1649V32.8488H23.4412C23.0777 32.8488 22.9891 32.5468 22.9787 32.2934C22.9728 32.1497 22.9864 31.4294 23.8322 31.36ZM21.2666 30.6116C20.9401 31.147 20.7876 31.7732 20.8126 32.3821C20.8192 32.5398 20.8392 32.6917 20.8673 32.8397C20.8673 32.8428 20.8655 32.8458 20.8661 32.8487H15.6144V28.7335L21.2708 30.6033C21.2691 30.6061 21.2682 30.6089 21.2666 30.6116ZM23.4473 35.0167H33.0732C33.2827 35.0167 33.4877 34.956 33.6634 34.8419L34.154 34.5234C34.3901 35.5666 34.6589 36.5818 34.9517 37.5406C32.741 38.1932 29.2319 40.302 29.2319 47.1025V52.8232C28.4714 52.9767 27.5717 53.3314 26.8191 54.1189C26.0257 54.9491 25.5726 56.074 25.464 57.4705H23.2772C21.0737 51.12 20.2357 44.3623 23.4473 35.0167ZM25.234 62.3993C24.8334 61.4779 24.4472 60.56 24.0835 59.6386H35.3388C36.7975 59.6386 37.5371 58.9745 37.5371 57.6649V53.7984V49.7078H46.0932C46.692 49.7078 47.1772 49.2226 47.1772 48.6238C47.1772 48.0251 46.692 47.5399 46.0932 47.5399H37.5449C37.5588 46.9242 37.5982 46.4206 37.7111 46.1232C37.7659 45.9785 37.8133 45.8536 38.4086 45.8536L42.3005 45.8496C44.7381 45.8473 46.4818 45.2576 47.6316 44.0467C47.6848 43.9906 47.7351 43.9318 47.7855 43.8733H54.6805H62.4296V46.8525C62.4296 47.2251 62.1155 47.5399 61.7438 47.5399H50.9523C50.3535 47.5399 49.8683 48.0251 49.8683 48.6238C49.8683 49.2226 50.3535 49.7078 50.9523 49.7078H61.1068C61.9636 51.2981 62.7342 53.2769 62.6884 56.4032C60.5438 53.4243 57.0721 51.5088 53.1319 51.5088C49.9675 51.5088 46.9982 52.7501 44.7709 55.004C42.7944 57.0039 41.6074 59.5995 41.3631 62.4029L25.234 62.3993ZM53.267 70.3084C49.8783 70.3084 47.0204 67.8669 46.3289 64.5711H60.2051C59.5135 67.8666 56.6555 70.3084 53.267 70.3084ZM61.4365 62.4032H45.0978H43.5405C44.0726 57.5017 48.171 53.6768 53.1319 53.6768C57.4873 53.6768 61.145 56.5488 62.3563 60.5692C62.3602 60.5819 62.3641 60.5947 62.3684 60.6072C62.5397 61.184 62.6607 61.7844 62.7261 62.4032H61.4365ZM71.832 39.9437C71.832 40.9151 71.0427 41.7053 70.0727 41.7053H55.7644V36.1074H71.832V39.9437ZM71.832 33.9395H55.7644V31.6341H71.832V33.9395ZM71.832 29.4661H55.7644V27.2617C55.7644 26.2903 56.5536 25.5001 57.5237 25.5001H70.0727C71.0427 25.5001 71.832 26.2904 71.832 27.2617V29.4661Z" fill="#030616"/>
</g>
<defs>
<clipPath id="clip0_31_375">
<rect width="74" height="74" fill="white" transform="translate(0 0.5)"/>
</clipPath>
</defs>
</svg>
