<svg width="74" height="75" viewBox="0 0 74 75" fill="none" xmlns="http://www.w3.org/2000/svg">
<path d="M13.875 20.1563C13.875 19.4702 13.6716 18.7996 13.2904 18.2291C12.9093 17.6587 12.3675 17.2141 11.7337 16.9515C11.0999 16.689 10.4024 16.6203 9.72953 16.7542C9.05666 16.888 8.43859 17.2184 7.95347 17.7035C7.46836 18.1886 7.138 18.8067 7.00415 19.4795C6.87031 20.1524 6.939 20.8499 7.20154 21.4837C7.46409 22.1175 7.90868 22.6593 8.47912 23.0404C9.04955 23.4216 9.7202 23.625 10.4063 23.625C11.3259 23.624 12.2076 23.2582 12.8579 22.6079C13.5082 21.9576 13.874 21.0759 13.875 20.1563ZM9.25 20.1563C9.25 19.9276 9.31781 19.704 9.44486 19.5139C9.57192 19.3237 9.7525 19.1755 9.96377 19.088C10.1751 19.0005 10.4075 18.9776 10.6318 19.0222C10.8561 19.0668 11.0621 19.177 11.2238 19.3387C11.3855 19.5004 11.4957 19.7064 11.5403 19.9307C11.5849 20.155 11.562 20.3875 11.4745 20.5987C11.387 20.81 11.2388 20.9906 11.0486 21.1176C10.8585 21.2447 10.6349 21.3125 10.4063 21.3125C10.0997 21.3122 9.8058 21.1902 9.58904 20.9735C9.37228 20.7567 9.25035 20.4628 9.25 20.1563Z" fill="#030616"/>
<path d="M27.75 8.59375C25.4632 8.59375 23.2277 9.27188 21.3262 10.5424C19.4248 11.8129 17.9428 13.6187 17.0676 15.7315C16.1925 17.8442 15.9635 20.1691 16.4097 22.412C16.8558 24.6549 17.957 26.7151 19.5741 28.3322C21.1911 29.9492 23.2514 31.0504 25.4943 31.4966C27.7372 31.9427 30.062 31.7137 32.1748 30.8386C34.2876 29.9635 36.0934 28.4815 37.3639 26.58C38.6344 24.6786 39.3125 22.4431 39.3125 20.1562C39.309 17.0908 38.0897 14.1518 35.9221 11.9842C33.7544 9.81654 30.8155 8.59723 27.75 8.59375ZM27.75 29.4062C25.9205 29.4062 24.1321 28.8637 22.611 27.8473C21.0898 26.8309 19.9042 25.3863 19.2041 23.6961C18.504 22.0059 18.3208 20.146 18.6777 18.3517C19.0347 16.5573 19.9156 14.9091 21.2093 13.6155C22.5029 12.3219 24.1511 11.4409 25.9454 11.084C27.7397 10.7271 29.5996 10.9103 31.2898 11.6104C32.98 12.3105 34.4247 13.4961 35.4411 15.0172C36.4575 16.5384 37 18.3268 37 20.1562C36.9972 22.6087 36.0218 24.9598 34.2877 26.6939C32.5536 28.4281 30.2024 29.4035 27.75 29.4062Z" fill="#030616"/>
<path d="M27.75 16.6875C28.0566 16.6878 28.3504 16.8098 28.5672 17.0265C28.784 17.2433 28.9059 17.5372 28.9062 17.8438C28.9062 18.1504 29.0281 18.4445 29.2449 18.6613C29.4617 18.8782 29.7558 19 30.0625 19C30.3692 19 30.6633 18.8782 30.8801 18.6613C31.0969 18.4445 31.2188 18.1504 31.2188 17.8438C31.2178 17.1267 30.9951 16.4275 30.581 15.8421C30.167 15.2567 29.582 14.8137 28.9062 14.5739V14.375C28.9062 14.0683 28.7844 13.7742 28.5676 13.5574C28.3508 13.3406 28.0567 13.2188 27.75 13.2188C27.4433 13.2188 27.1492 13.3406 26.9324 13.5574C26.7156 13.7742 26.5938 14.0683 26.5938 14.375V14.5739C25.8226 14.8469 25.1728 15.3836 24.7591 16.0893C24.3453 16.7949 24.1943 17.6241 24.3326 18.4304C24.4709 19.2366 24.8898 19.968 25.5151 20.4954C26.1404 21.0228 26.932 21.3122 27.75 21.3125C27.9787 21.3125 28.2022 21.3803 28.3924 21.5074C28.5825 21.6344 28.7307 21.815 28.8182 22.0263C28.9057 22.2375 28.9286 22.47 28.884 22.6943C28.8394 22.9186 28.7293 23.1246 28.5676 23.2863C28.4059 23.448 28.1999 23.5582 27.9756 23.6028C27.7513 23.6474 27.5188 23.6245 27.3075 23.537C27.0962 23.4495 26.9157 23.3013 26.7886 23.1111C26.6616 22.921 26.5938 22.6974 26.5938 22.4688C26.5938 22.1621 26.4719 21.868 26.2551 21.6512C26.0383 21.4343 25.7442 21.3125 25.4375 21.3125C25.1308 21.3125 24.8367 21.4343 24.6199 21.6512C24.4031 21.868 24.2812 22.1621 24.2812 22.4688C24.2822 23.1858 24.5049 23.885 24.919 24.4704C25.333 25.0558 25.918 25.4988 26.5938 25.7386V25.9375C26.5938 26.2442 26.7156 26.5383 26.9324 26.7551C27.1492 26.9719 27.4433 27.0938 27.75 27.0938C28.0567 27.0938 28.3508 26.9719 28.5676 26.7551C28.7844 26.5383 28.9062 26.2442 28.9062 25.9375V25.7386C29.6774 25.4656 30.3272 24.9289 30.7409 24.2232C31.1547 23.5176 31.3057 22.6884 31.1674 21.8821C31.0291 21.0759 30.6102 20.3445 29.9849 19.8171C29.3596 19.2897 28.568 19.0003 27.75 19C27.4433 19 27.1492 18.8782 26.9324 18.6613C26.7156 18.4445 26.5938 18.1504 26.5938 17.8438C26.5938 17.5371 26.7156 17.243 26.9324 17.0262C27.1492 16.8093 27.4433 16.6875 27.75 16.6875Z" fill="#030616"/>
<path d="M33.5312 34.0312H10.4062C10.0996 34.0312 9.8055 34.1531 9.58866 34.3699C9.37182 34.5867 9.25 34.8808 9.25 35.1875C9.25 35.4942 9.37182 35.7883 9.58866 36.0051C9.8055 36.2219 10.0996 36.3438 10.4062 36.3438H33.5312C33.8379 36.3438 34.132 36.2219 34.3488 36.0051C34.5657 35.7883 34.6875 35.4942 34.6875 35.1875C34.6875 34.8808 34.5657 34.5867 34.3488 34.3699C34.132 34.1531 33.8379 34.0312 33.5312 34.0312Z" fill="#030616"/>
<path d="M33.5312 38.6562H10.4062C10.0996 38.6562 9.8055 38.7781 9.58866 38.9949C9.37182 39.2117 9.25 39.5058 9.25 39.8125C9.25 40.1192 9.37182 40.4133 9.58866 40.6301C9.8055 40.8469 10.0996 40.9688 10.4062 40.9688H33.5312C33.8379 40.9688 34.132 40.8469 34.3488 40.6301C34.5657 40.4133 34.6875 40.1192 34.6875 39.8125C34.6875 39.5058 34.5657 39.2117 34.3488 38.9949C34.132 38.7781 33.8379 38.6562 33.5312 38.6562Z" fill="#030616"/>
<path d="M33.5312 43.2812H10.4062C10.0996 43.2812 9.8055 43.4031 9.58866 43.6199C9.37182 43.8367 9.25 44.1308 9.25 44.4375C9.25 44.7442 9.37182 45.0383 9.58866 45.2551C9.8055 45.4719 10.0996 45.5938 10.4062 45.5938H33.5312C33.8379 45.5938 34.132 45.4719 34.3488 45.2551C34.5657 45.0383 34.6875 44.7442 34.6875 44.4375C34.6875 44.1308 34.5657 43.8367 34.3488 43.6199C34.132 43.4031 33.8379 43.2812 33.5312 43.2812Z" fill="#030616"/>
<path d="M33.5312 47.9062H10.4062C10.0996 47.9062 9.8055 48.0281 9.58866 48.2449C9.37182 48.4617 9.25 48.7558 9.25 49.0625C9.25 49.3692 9.37182 49.6633 9.58866 49.8801C9.8055 50.0969 10.0996 50.2188 10.4062 50.2188H33.5312C33.8379 50.2188 34.132 50.0969 34.3488 49.8801C34.5657 49.6633 34.6875 49.3692 34.6875 49.0625C34.6875 48.7558 34.5657 48.4617 34.3488 48.2449C34.132 48.0281 33.8379 47.9062 33.5312 47.9062Z" fill="#030616"/>
<path d="M33.5312 52.5312H10.4062C10.0996 52.5312 9.8055 52.6531 9.58866 52.8699C9.37182 53.0867 9.25 53.3808 9.25 53.6875C9.25 53.9942 9.37182 54.2883 9.58866 54.5051C9.8055 54.7219 10.0996 54.8438 10.4062 54.8438H33.5312C33.8379 54.8438 34.132 54.7219 34.3488 54.5051C34.5657 54.2883 34.6875 53.9942 34.6875 53.6875C34.6875 53.3808 34.5657 53.0867 34.3488 52.8699C34.132 52.6531 33.8379 52.5312 33.5312 52.5312Z" fill="#030616"/>
<path d="M45.0938 52.5312H40.4688C40.1621 52.5312 39.868 52.6531 39.6512 52.8699C39.4343 53.0867 39.3125 53.3808 39.3125 53.6875C39.3125 53.9942 39.4343 54.2883 39.6512 54.5051C39.868 54.7219 40.1621 54.8438 40.4688 54.8438H45.0938C45.4004 54.8438 45.6945 54.7219 45.9113 54.5051C46.1282 54.2883 46.25 53.9942 46.25 53.6875C46.25 53.3808 46.1282 53.0867 45.9113 52.8699C45.6945 52.6531 45.4004 52.5312 45.0938 52.5312Z" fill="#030616"/>
<path d="M33.5312 57.1562H10.4062C10.0996 57.1562 9.8055 57.2781 9.58866 57.4949C9.37182 57.7117 9.25 58.0058 9.25 58.3125C9.25 58.6192 9.37182 58.9133 9.58866 59.1301C9.8055 59.3469 10.0996 59.4688 10.4062 59.4688H33.5312C33.8379 59.4688 34.132 59.3469 34.3488 59.1301C34.5657 58.9133 34.6875 58.6192 34.6875 58.3125C34.6875 58.0058 34.5657 57.7117 34.3488 57.4949C34.132 57.2781 33.8379 57.1562 33.5312 57.1562Z" fill="#030616"/>
<path d="M45.0938 57.1562H40.4688C40.1621 57.1562 39.868 57.2781 39.6512 57.4949C39.4343 57.7117 39.3125 58.0058 39.3125 58.3125C39.3125 58.6192 39.4343 58.9133 39.6512 59.1301C39.868 59.3469 40.1621 59.4688 40.4688 59.4688H45.0938C45.4004 59.4688 45.6945 59.3469 45.9113 59.1301C46.1282 58.9133 46.25 58.6192 46.25 58.3125C46.25 58.0058 46.1282 57.7117 45.9113 57.4949C45.6945 57.2781 45.4004 57.1562 45.0938 57.1562Z" fill="#030616"/>
<path d="M53.1895 23.6283C50.9027 23.6283 48.6672 24.3065 46.7657 25.577C44.8643 26.8475 43.3823 28.6533 42.5072 30.766C41.632 32.8788 41.403 35.2037 41.8492 37.4466C42.2953 39.6895 43.3966 41.7497 45.0136 43.3668C46.6306 44.9838 48.6909 46.085 50.9338 46.5312C53.1767 46.9773 55.5015 46.7483 57.6143 45.8732C59.7271 44.998 61.5329 43.5161 62.8034 41.6146C64.0739 39.7132 64.752 37.4777 64.752 35.1908C64.7486 32.1253 63.5293 29.1864 61.3616 27.0187C59.194 24.8511 56.255 23.6318 53.1895 23.6283ZM43.9395 35.1908C43.9421 33.1411 44.6243 31.15 45.8792 29.5293C47.1342 27.9086 48.8911 26.7498 50.875 26.2342V44.1476C48.8911 43.632 47.1342 42.4731 45.8792 40.8524C44.6243 39.2317 43.9421 37.2406 43.9395 35.1908ZM53.1895 44.4408H53.1875V25.9408H53.1895C55.6428 25.9408 57.9955 26.9154 59.7303 28.6501C61.465 30.3848 62.4395 32.7376 62.4395 35.1908C62.4395 37.6441 61.465 39.9969 59.7303 41.7316C57.9955 43.4663 55.6428 44.4408 53.1895 44.4408Z" fill="#030616"/>
<path d="M71.3496 67.1221L66.0037 56.0145C65.9659 55.8667 65.8992 55.728 65.8072 55.6063L63.8994 51.6415C63.8334 51.5043 63.7409 51.3814 63.6272 51.2801C63.5135 51.1787 63.3809 51.1008 63.237 51.0508C63.0932 51.0008 62.9408 50.9797 62.7888 50.9888C62.6367 50.9978 62.488 51.0368 62.3511 51.1036L61.3117 51.6094L60.3763 49.6901C63.6485 48.0696 66.2766 45.3902 67.8337 42.0874C69.3907 38.7845 69.7852 35.0522 68.953 31.4968C68.1208 27.9414 66.1109 24.7719 63.2497 22.5032C60.3885 20.2345 56.8443 18.9999 53.1928 19H53.1875V3.96875C53.1875 3.66209 53.0657 3.368 52.8488 3.15116C52.632 2.93432 52.3379 2.8125 52.0312 2.8125H3.46875C3.16209 2.8125 2.868 2.93432 2.65116 3.15116C2.43432 3.368 2.3125 3.66209 2.3125 3.96875V65.3695C2.3125 65.5248 2.34376 65.6784 2.40443 65.8213C2.46509 65.9642 2.55391 66.0935 2.66559 66.2013L6.13434 69.5505C6.3499 69.7587 6.63785 69.875 6.9375 69.875C7.23715 69.875 7.5251 69.7587 7.74066 69.5505L10.4062 66.9767L13.0718 69.5505C13.2874 69.7587 13.5753 69.875 13.875 69.875C14.1747 69.875 14.4626 69.7587 14.6782 69.5505L17.3438 66.9767L20.0093 69.5505C20.2249 69.7587 20.5128 69.875 20.8125 69.875C21.1122 69.875 21.4001 69.7587 21.6157 69.5505L24.2812 66.9767L26.9468 69.5505C27.1624 69.7587 27.4503 69.875 27.75 69.875C28.0497 69.875 28.3376 69.7587 28.5532 69.5505L31.2188 66.9767L33.8843 69.5505C34.0999 69.7587 34.3878 69.875 34.6875 69.875C34.9872 69.875 35.2751 69.7587 35.4907 69.5505L38.1562 66.9767L40.8218 69.5505C41.0374 69.7587 41.3253 69.875 41.625 69.875C41.9247 69.875 42.2126 69.7587 42.4282 69.5505L45.0938 66.9767L47.7593 69.5505C47.9749 69.7587 48.2628 69.875 48.5625 69.875C48.8622 69.875 49.1501 69.7587 49.3657 69.5505L52.8344 66.2013C52.9461 66.0935 53.0349 65.9642 53.0956 65.8213C53.1562 65.6784 53.1875 65.5248 53.1875 65.3695V51.375H53.1928C54.9047 51.3762 56.6058 51.1047 58.2322 50.5708L59.2325 52.6232L58.1931 53.129C57.9184 53.263 57.7079 53.5004 57.6077 53.7891C57.5075 54.0778 57.5257 54.3945 57.6583 54.6699L65.1113 70.156C65.5143 70.983 66.2293 71.616 67.099 71.9159C67.9687 72.2158 68.9219 72.1579 69.7489 71.7549C70.5751 71.3523 71.2077 70.6384 71.5079 69.7697C71.8081 68.9011 71.7513 67.9489 71.35 67.1221H71.3496ZM50.875 64.8787L48.5625 67.1116L45.8969 64.5378C45.6814 64.3296 45.3934 64.2133 45.0938 64.2133C44.7941 64.2133 44.5061 64.3296 44.2906 64.5378L41.625 67.1116L38.9594 64.5378C38.7439 64.3296 38.4559 64.2133 38.1562 64.2133C37.8566 64.2133 37.5686 64.3296 37.3531 64.5378L34.6875 67.1116L32.0219 64.5378C31.8064 64.3296 31.5184 64.2133 31.2188 64.2133C30.9191 64.2133 30.6311 64.3296 30.4156 64.5378L27.75 67.1116L25.0844 64.5378C24.8689 64.3296 24.5809 64.2133 24.2812 64.2133C23.9816 64.2133 23.6936 64.3296 23.4781 64.5378L20.8125 67.1116L18.1469 64.5378C17.9313 64.3296 17.6434 64.2133 17.3438 64.2133C17.0441 64.2133 16.7562 64.3296 16.5406 64.5378L13.875 67.1116L11.2094 64.5378C10.9938 64.3296 10.7059 64.2133 10.4062 64.2133C10.1066 64.2133 9.81865 64.3296 9.60309 64.5378L6.9375 67.1116L4.625 64.8787V5.125H50.875V19.1666C50.0814 19.2813 49.2975 19.4552 48.5298 19.687C48.4546 19.131 48.2455 18.6015 47.9207 18.144C47.5959 17.6866 47.1649 17.3147 46.6648 17.0604C46.1647 16.806 45.6103 16.6768 45.0493 16.6838C44.4882 16.6908 43.9373 16.8338 43.4436 17.1005C42.95 17.3672 42.5284 17.7496 42.2151 18.215C41.9017 18.6805 41.7059 19.2149 41.6445 19.7726C41.5831 20.3304 41.6579 20.8946 41.8625 21.4171C42.0671 21.9395 42.3953 22.4046 42.8191 22.7723C40.9686 24.3154 39.4863 26.2526 38.4808 28.4422C37.4753 30.6319 36.9719 33.0186 37.0075 35.4279C37.0431 37.8371 37.6167 40.2079 38.6865 42.3669C39.7563 44.5259 41.2951 46.4185 43.1904 47.9062H40.4688C40.1621 47.9062 39.868 48.0281 39.6512 48.2449C39.4343 48.4617 39.3125 48.7558 39.3125 49.0625C39.3125 49.3692 39.4343 49.6633 39.6512 49.8801C39.868 50.0969 40.1621 50.2188 40.4688 50.2188H45.0938C45.2826 50.2189 45.4685 50.1727 45.6354 50.0842C45.8022 49.9958 45.9448 49.8678 46.0507 49.7114C47.5697 50.4618 49.198 50.967 50.875 51.2084V64.8787ZM44.896 21.2943C44.6605 21.2527 44.4438 21.139 44.2757 20.9688C44.1077 20.7987 43.9967 20.5805 43.9581 20.3445C43.9195 20.1085 43.9553 19.8663 44.0604 19.6515C44.1654 19.4367 44.3347 19.2598 44.5447 19.1454C44.7547 19.031 44.9951 18.9847 45.2325 19.0129C45.47 19.0411 45.6929 19.1424 45.8702 19.3028C46.0476 19.4632 46.1707 19.6748 46.2226 19.9082C46.2744 20.1417 46.2525 20.3855 46.1597 20.6059L46.1656 20.6085C45.7313 20.8186 45.3081 21.0472 44.896 21.2943ZM53.1928 49.0625C50.4486 49.0625 47.766 48.2487 45.4843 46.7241C43.2026 45.1995 41.4242 43.0326 40.374 40.4972C39.3239 37.9619 39.0491 35.1721 39.5845 32.4806C40.1198 29.7891 41.4413 27.3168 43.3817 25.3764C45.3222 23.4359 47.7945 22.1145 50.486 21.5791C53.1775 21.0437 55.9673 21.3185 58.5026 22.3687C61.0379 23.4188 63.2049 25.1972 64.7295 27.479C66.2541 29.7607 67.0678 32.4433 67.0678 35.1875C67.0637 38.8661 65.6005 42.3928 62.9993 44.994C60.3982 47.5952 56.8714 49.0583 53.1928 49.0625ZM60.2406 54.7047L61.284 54.1962H61.285H61.2863L62.3194 53.6927L63.3223 55.7766L61.2435 56.7896L60.2406 54.7047ZM69.3223 69.0133C69.2479 69.2291 69.1113 69.418 68.9298 69.5563C68.7482 69.6946 68.5298 69.7761 68.3021 69.7905C68.0743 69.8049 67.8474 69.7515 67.6499 69.6372C67.4524 69.5229 67.2931 69.3527 67.1921 69.148L62.2463 58.8718L64.3252 57.8588L69.2682 68.1299C69.3352 68.2663 69.3744 68.4146 69.3837 68.5663C69.3929 68.7179 69.372 68.8699 69.3221 69.0135L69.3223 69.0133Z" fill="#030616"/>
</svg>
